<?xml version="1.0" standalone="no"?>
<!DOCTYPE svg PUBLIC "-//W3C//DTD SVG 20010904//EN"
 "http://www.w3.org/TR/2001/REC-SVG-20010904/DTD/svg10.dtd">
<svg version="1.0" xmlns="http://www.w3.org/2000/svg"
 width="1600.000000pt" height="1600.000000pt" viewBox="0 0 1600.000000 1600.000000"
 preserveAspectRatio="xMidYMid meet">
<metadata>
Created by potrace 1.11, written by Peter Selinger 2001-2013
</metadata>
<g transform="translate(0.000000,1600.000000) scale(0.100000,-0.100000)"
fill="#000000" stroke="none">
<path d="M4010 14332 c-7 -3 -10 -789 -10 -2333 l0 -2329 -342 -1 c-775 -2
-973 -4 -983 -11 -7 -4 -10 -236 -9 -665 l0 -659 -166 0 -167 0 0 135 c0 75
-1 150 -2 167 l-1 31 -322 -1 c-178 -1 -327 -4 -333 -8 -7 -4 -9 -227 -8 -640
0 -348 1 -645 2 -659 l1 -25 330 0 330 0 1 25 c1 15 2 89 3 166 l1 140 166 1
165 1 0 -2361 c1 -1299 4 -2391 7 -2427 48 -472 322 -868 752 -1082 113 -56
304 -109 447 -123 84 -9 8059 -11 8196 -2 121 7 161 13 247 35 33 8 67 16 75
18 31 6 177 68 235 99 256 138 459 351 581 611 33 71 79 199 87 245 3 14 8 36
11 50 6 26 10 51 22 129 4 25 8 1117 8 2426 l1 2380 166 1 165 1 1 -136 c1
-75 1 -150 2 -167 l1 -30 323 0 c177 1 327 4 332 8 7 4 9 227 8 640 0 348 -1
645 -2 659 l-1 25 -330 1 c-229 0 -330 -4 -331 -11 0 -6 -2 -81 -2 -166 l-2
-155 -166 -1 -165 -2 0 667 0 666 -325 2 c-178 0 -478 1 -666 2 l-343 1 -2
2332 -3 2332 -3988 0 c-2193 1 -3992 0 -3997 -2z"/>
</g>
</svg>
